<svg width="30" height="30" viewBox="0 0 30 30" fill="none" xmlns="http://www.w3.org/2000/svg">
<g clip-path="url(#clip0_20_746)">
<path d="M23.4863 24.2033C27.99 19.5036 27.8312 12.0427 23.1314 7.53894C18.4317 3.0352 10.9708 3.1941 6.46706 7.89378C2.09836 12.4527 2.09836 19.6444 6.46706 24.2033L3.40477 28.2856C3.04975 28.759 3.14567 29.4306 3.61905 29.7856C4.09242 30.1407 4.76405 30.0447 5.11908 29.5714L8.08707 25.6134C12.193 28.605 17.7603 28.605 21.8661 25.6134L24.8341 29.5714C25.1891 30.0448 25.8608 30.1407 26.3341 29.7856C26.8076 29.4306 26.9035 28.759 26.5484 28.2856L23.4863 24.2033ZM16.0482 16.0709C16.0482 16.3027 15.973 16.5283 15.8339 16.7137L12.6195 20.9996C12.2645 21.4731 11.5928 21.569 11.1195 21.2139C10.6461 20.8588 10.5501 20.1873 10.9052 19.7139L13.9053 15.7141V9.64206C13.9053 9.05028 14.385 8.57057 14.9768 8.57057C15.5686 8.57057 16.0483 9.05028 16.0483 9.64206V16.0709H16.0482Z" fill="#323232"/>
<path d="M9.12144 1.56856C7.00308 -0.497074 3.61131 -0.45432 1.54562 1.66405C-0.483096 3.74456 -0.483347 7.06305 1.54512 9.14388C1.96356 9.56219 2.64178 9.56219 3.06016 9.14388L9.12144 3.08366C9.53976 2.66522 9.53976 1.987 9.12144 1.56856Z" fill="#323232"/>
<path d="M28.4075 1.56852C26.3155 -0.52292 22.9243 -0.52292 20.8323 1.56852C20.414 1.98695 20.414 2.66518 20.8323 3.08355L26.8925 9.14377C27.3109 9.56209 27.9892 9.56209 28.4075 9.14377C30.499 7.05177 30.499 3.66058 28.4075 1.56852Z" fill="#323232"/>
</g>
<defs>
<clipPath id="clip0_20_746">
<rect width="30" height="30" fill="white"/>
</clipPath>
</defs>
</svg>
