<svg width="70" height="70" viewBox="0 0 70 70" fill="none" xmlns="http://www.w3.org/2000/svg">
<g opacity="0.8">
<path d="M35 7.52499C47.7862 7.52499 59.1934 16.7153 61.8681 29.2299C63.2044 35.483 62.3042 42.1323 59.3229 47.7904C56.4536 53.2357 51.7496 57.6366 46.1216 60.1307C40.2675 62.7256 33.5468 63.1778 27.3938 61.4082C21.4578 59.7016 16.1945 55.9559 12.6112 50.9278C5.1191 40.4159 6.1208 25.6501 14.9352 16.2309C20.1012 10.7107 27.4386 7.52499 35 7.52499ZM21.8197 36.4679L29.3097 44.1385C31.206 46.081 34.2034 43.1382 32.3148 41.2048L28.5355 37.3345H46.4457C47.7176 37.3345 48.7788 36.2726 48.7788 35.0014C48.7788 33.7302 47.7169 32.6683 46.4457 32.6683H28.6251L32.4793 28.8148C34.3945 26.8996 31.4251 23.9295 29.5099 25.8447L21.8372 33.5167C21.0238 34.3294 21.0161 35.6454 21.8197 36.4679Z" fill="white"/>
</g>
</svg>
