<svg width="70" height="70" viewBox="0 0 70 70" fill="none" xmlns="http://www.w3.org/2000/svg">
<g opacity="0.8">
<path d="M34.9999 7.52499C22.2137 7.52499 10.8065 16.7153 8.13184 29.2299C6.79554 35.483 7.69574 42.1323 10.677 47.7904C13.5463 53.2357 18.2503 57.6366 23.8783 60.1307C29.7324 62.7256 36.4531 63.1778 42.6061 61.4082C48.5421 59.7016 53.8054 55.9559 57.3887 50.9278C64.8808 40.4159 63.8791 25.6501 55.0647 16.2309C49.8987 10.7107 42.5613 7.52499 34.9999 7.52499ZM48.1802 36.4679L40.6902 44.1385C38.7939 46.081 35.7965 43.1382 37.6851 41.2048L41.4644 37.3345H23.5542C22.2823 37.3345 21.2211 36.2726 21.2211 35.0014C21.2211 33.7302 22.283 32.6683 23.5542 32.6683H41.3748L37.5206 28.8148C35.6054 26.8996 38.5748 23.9295 40.49 25.8447L48.1627 33.5167C48.9761 34.3294 48.9838 35.6454 48.1802 36.4679Z" fill="white"/>
</g>
</svg>
