<svg width="24" height="24" viewBox="0 0 24 24" fill="none" xmlns="http://www.w3.org/2000/svg">
<g clip-path="url(#clip0_132_135)">
<path d="M12 14.4609C13.3591 14.4609 14.4609 13.3591 14.4609 12C14.4609 10.6409 13.3591 9.53906 12 9.53906C10.6409 9.53906 9.53906 10.6409 9.53906 12C9.53906 13.3591 10.6409 14.4609 12 14.4609Z" fill="white"/>
<path d="M12 0.28125C5.52792 0.28125 0.28125 5.52792 0.28125 12C0.28125 18.4721 5.52792 23.7188 12 23.7188C18.4721 23.7188 23.7188 18.4721 23.7188 12C23.7188 5.52792 18.4721 0.28125 12 0.28125ZM19.2402 14.9784C19.184 16.0926 18.8709 17.1912 18.059 17.9945C17.2392 18.8055 16.1353 19.1076 15.0105 19.1633H8.98959C7.86459 19.1076 6.76087 18.8056 5.94108 17.9945C5.12911 17.1912 4.81608 16.0926 4.75983 14.9784V9.02156C4.81608 7.90744 5.12916 6.80878 5.94108 6.00544C6.76087 5.1945 7.86473 4.89234 8.98959 4.8367H15.0104C16.1354 4.89234 17.2391 5.19436 18.0589 6.00544C18.8709 6.80878 19.1839 7.90744 19.2402 9.02156L19.2402 14.9784Z" fill="white"/>
<path d="M14.9344 6.19397C13.4678 6.15375 10.5325 6.15375 9.066 6.19397C8.30282 6.21492 7.43765 6.4049 6.8939 6.98569C6.32887 7.58939 6.11536 8.31876 6.0937 9.13472C6.05564 10.5668 6.0937 14.8653 6.0937 14.8653C6.1185 15.6811 6.32887 16.4106 6.8939 17.0143C7.43765 17.5953 8.30282 17.7851 9.066 17.806C10.5325 17.8462 13.4678 17.8462 14.9344 17.806C15.6975 17.7851 16.5627 17.5951 17.1065 17.0143C17.6715 16.4106 17.885 15.6812 17.9067 14.8653V9.13472C17.885 8.31876 17.6715 7.58939 17.1065 6.98569C16.5625 6.40472 15.6974 6.21492 14.9344 6.19397ZM12 15.8145C11.2456 15.8145 10.5081 15.5907 9.8808 15.1716C9.25352 14.7525 8.76461 14.1567 8.4759 13.4597C8.18719 12.7627 8.11166 11.9958 8.25884 11.2558C8.40602 10.5159 8.76931 9.83623 9.30277 9.30277C9.83623 8.76931 10.5159 8.40602 11.2558 8.25884C11.9958 8.11166 12.7627 8.1872 13.4597 8.4759C14.1567 8.76461 14.7525 9.25352 15.1716 9.8808C15.5907 10.5081 15.8144 11.2456 15.8144 12C15.8144 13.0117 15.4126 13.9819 14.6972 14.6972C13.9819 15.4126 13.0117 15.8145 12 15.8145ZM15.8307 8.9729C15.6798 8.97287 15.5323 8.92809 15.4069 8.84424C15.2814 8.76039 15.1837 8.64123 15.126 8.50183C15.0683 8.36243 15.0532 8.20904 15.0826 8.06107C15.1121 7.91309 15.1848 7.77718 15.2915 7.6705C15.3982 7.56383 15.5341 7.49119 15.6821 7.46177C15.8301 7.43235 15.9835 7.44747 16.1228 7.50521C16.2622 7.56296 16.3814 7.66074 16.4652 7.78619C16.549 7.91165 16.5937 8.05914 16.5937 8.21001C16.5937 8.31021 16.574 8.40943 16.5357 8.502C16.4973 8.59457 16.4411 8.67868 16.3702 8.74953C16.2994 8.82037 16.2153 8.87656 16.1227 8.91489C16.0301 8.95321 15.9309 8.97293 15.8307 8.9729Z" fill="white"/>
</g>
<defs>
<clipPath id="clip0_132_135">
<rect width="24" height="24" fill="white"/>
</clipPath>
</defs>
</svg>
