<svg width="30" height="30" viewBox="0 0 30 30" fill="none" xmlns="http://www.w3.org/2000/svg">
<path d="M15.4401 0.923671C15.0155 0.905565 14.5795 0.908754 14.1309 0.934655C8.70967 1.37644 4.34523 5.69958 4.3457 11.2124C4.34636 13.8225 5.38173 16.104 7.00989 18.2015C8.43705 20.0721 10.0306 21.8048 12.0893 23.4603L12.1116 23.4748C13.6954 24.6974 15.8995 24.8349 17.6816 23.4823C17.6958 23.4709 17.7107 23.4596 17.7238 23.4475C19.9208 21.5835 21.4112 20.0715 22.8031 18.1869C22.8031 18.1804 22.8145 18.1739 22.818 18.1668C24.2391 16.132 25.4468 13.8689 25.4474 11.2124C25.4474 6.25197 21.8091 1.19492 15.4401 0.923671ZM14.9 4.76888C18.516 4.76888 21.4661 7.7208 21.4661 11.3369C21.4661 14.953 18.516 17.903 14.9 17.903C11.2839 17.903 8.33195 14.953 8.33195 11.3369C8.33195 7.7208 11.2839 4.76888 14.9 4.76888Z" fill="#323232"/>
<path d="M23.2057 19.9922C21.8136 21.7198 20.2712 23.2509 18.1447 25.0551C18.1288 25.0689 18.1146 25.0803 18.0969 25.0936C16.0488 26.6482 13.5157 26.4912 11.6956 25.0861L11.6704 25.0695C9.69274 23.4791 8.09749 21.8206 6.66621 20.0652L5.75796 20.5614C4.87615 21.0418 4.22168 21.8132 4.22168 22.7477C4.22168 23.6822 4.87615 24.4609 5.75796 24.9413L12.0421 28.3672C13.8058 29.328 16.202 29.328 17.9656 28.3672L24.2498 24.9413C25.1316 24.4609 25.7787 23.6822 25.7787 22.7477C25.7787 21.8132 25.1316 21.0418 24.2498 20.5614L23.2057 19.9922Z" fill="#323232"/>
</svg>
