<svg width="130" height="130" viewBox="0 0 130 130" fill="none" xmlns="http://www.w3.org/2000/svg">
<path d="M113.75 70.8906V66.8281C114.871 66.8281 115.781 65.9188 115.781 64.7969V52.6094C115.781 51.4874 114.871 50.5781 113.75 50.5781H102.781L102.388 49.0523C101.49 45.5627 100.095 42.2199 98.2435 39.1278L97.431 37.7686L105.219 29.9673C106.003 29.1818 106.003 27.9091 105.219 27.1235L96.5923 18.4844C95.7957 17.725 94.5444 17.725 93.7478 18.4844L85.9457 26.2864L84.5873 25.4739C81.4904 23.622 78.1444 22.2271 74.65 21.3281L73.125 20.9314V9.95313C73.125 8.83118 72.2157 7.92188 71.0938 7.92188H58.9063C57.7843 7.92188 56.875 8.83118 56.875 9.95313V20.9219L55.3492 21.3162C51.8596 22.2136 48.5167 23.6085 45.423 25.4573L44.0639 26.2706L36.2642 18.4844C35.4667 17.7187 34.2075 17.7187 33.4101 18.4844L24.7813 27.1108C24.402 27.4893 24.1885 28.0035 24.1885 28.5391C24.1885 29.0754 24.402 29.5888 24.7813 29.9673L32.5833 37.7686L31.7708 39.1278C29.9205 42.2199 28.5248 45.5627 27.6274 49.0523L27.2291 50.5781H16.25C15.1281 50.5781 14.2188 51.4874 14.2188 52.6094V64.7969C14.2188 65.9188 15.1281 66.8281 16.25 66.8281V70.8906C12.8849 70.8906 10.1562 68.1619 10.1562 64.7969V52.6094C10.1562 49.2443 12.8849 46.5156 16.25 46.5156H24.1092C24.9471 43.7068 26.0801 40.9948 27.4893 38.4255L21.9034 32.8396C20.7608 31.6994 20.1189 30.1522 20.1189 28.5391C20.1189 26.926 20.7608 25.3787 21.9034 24.2393L30.5362 15.6065C32.9412 13.3047 36.7331 13.3047 39.1381 15.6065L44.7224 21.1901C47.2916 19.7817 50.0045 18.651 52.8125 17.8139V9.95313C52.8125 6.58807 55.5412 3.85938 58.9063 3.85938H71.0938C74.4588 3.85938 77.1875 6.58807 77.1875 9.95313V17.8139C79.9964 18.651 82.7076 19.7841 85.2776 21.1924L90.8635 15.6065C93.2693 13.3047 97.0604 13.3047 99.4662 15.6065L108.097 24.2369C109.239 25.3771 109.88 26.9228 109.88 28.5367C109.88 30.1506 109.239 31.6978 108.097 32.8372L102.511 38.4232C103.92 40.994 105.052 43.7068 105.891 46.5156H113.75C117.115 46.5156 119.844 49.2443 119.844 52.6094V64.7969C119.844 68.1619 117.115 70.8906 113.75 70.8906Z" fill="#00A651"/>
<path d="M93.4375 58.7031H89.375C89.375 45.2413 78.4618 34.3281 65 34.3281C51.5382 34.3281 40.625 45.2413 40.625 58.7031H36.5625C36.5625 42.9974 49.2943 30.2656 65 30.2656C80.7049 30.2656 93.4375 42.9974 93.4375 58.7031Z" fill="#00A651"/>
<path d="M65 74.9531C58.2691 74.9531 52.8125 69.4957 52.8125 62.7656C52.8125 56.0347 58.2691 50.5781 65 50.5781C71.7317 50.5781 77.1875 56.0347 77.1875 62.7656C77.1804 69.4941 71.7285 74.946 65 74.9531ZM65 54.6406C60.513 54.6406 56.875 58.2786 56.875 62.7656C56.875 67.2526 60.513 70.8906 65 70.8906C69.487 70.8906 73.125 67.2526 73.125 62.7656C73.125 58.2786 69.487 54.6406 65 54.6406Z" fill="#00A651"/>
<path d="M99.5313 83.0781C92.8004 83.0781 87.3438 77.6207 87.3438 70.8906C87.3438 64.1597 92.8004 58.7031 99.5313 58.7031C106.262 58.7031 111.719 64.1597 111.719 70.8906C111.712 77.6191 106.26 83.071 99.5313 83.0781ZM99.5313 62.7656C95.0443 62.7656 91.4063 66.4036 91.4063 70.8906C91.4063 75.3776 95.0443 79.0156 99.5313 79.0156C104.018 79.0156 107.656 75.3776 107.656 70.8906C107.656 66.4036 104.018 62.7656 99.5313 62.7656Z" fill="#00A651"/>
<path d="M30.4688 83.0781C23.7379 83.0781 18.2812 77.6207 18.2812 70.8906C18.2812 64.1597 23.7379 58.7031 30.4688 58.7031C37.2004 58.7031 42.6563 64.1597 42.6563 70.8906C42.6491 77.6191 37.1973 83.071 30.4688 83.0781ZM30.4688 62.7656C25.9818 62.7656 22.3438 66.4036 22.3438 70.8906C22.3438 75.3776 25.9818 79.0156 30.4688 79.0156C34.9558 79.0156 38.5938 75.3776 38.5938 70.8906C38.5938 66.4036 34.9558 62.7656 30.4688 62.7656Z" fill="#00A651"/>
<path d="M117.946 88.2895C114.919 86.2091 111.33 85.0991 107.656 85.1094H91.4063C90.4184 85.1181 89.4321 85.2078 88.4586 85.3768C87.1589 83.3439 85.468 81.5904 83.4844 80.2153C83.1868 79.9908 82.8742 79.7869 82.5481 79.6067C79.7067 77.8857 76.4464 76.9796 73.125 76.9844H56.875C50.663 76.9622 44.8748 80.132 41.547 85.3768C40.5711 85.2078 39.5832 85.1181 38.5938 85.1094H22.3438C18.6732 85.0991 15.0852 86.2075 12.0598 88.2856C7.05939 91.6879 4.06567 97.3429 4.0625 103.391V111.516C4.06964 117.062 7.29663 122.099 12.3343 124.422C14.1942 125.298 16.2262 125.746 18.2813 125.734H38.5938V121.672H20.3125V99.3281H16.25V121.468C15.4851 121.315 14.7424 121.067 14.0378 120.733C10.4395 119.074 8.13294 115.477 8.125 111.516V103.391C8.12976 98.6838 10.4617 94.2841 14.3528 91.6371C16.7039 90.0232 19.4913 89.1639 22.3438 89.1719H38.5938C38.9516 89.1719 39.2968 89.21 39.6459 89.2338C38.9587 91.1714 38.6025 93.2106 38.5938 95.2656V115.578C38.6009 121.185 43.1442 125.727 48.75 125.734H54.8438V93.2344H50.7813V121.672H48.75C45.385 121.672 42.6563 118.943 42.6563 115.578V95.2656C42.6563 87.412 49.023 81.0469 56.875 81.0469H73.125C75.7387 81.0485 78.2999 81.7721 80.5288 83.1368C80.7351 83.2495 80.9334 83.3765 81.1215 83.5161C83.025 84.8198 84.5873 86.5614 85.6759 88.5942C86.7701 90.6477 87.3438 92.9384 87.3438 95.2656V115.578C87.3438 118.943 84.6151 121.672 81.25 121.672H79.2188V93.2344H75.1563V125.734H81.25C86.8566 125.727 91.3991 121.185 91.4063 115.578V95.2656C91.3968 93.2106 91.0421 91.1722 90.3557 89.2338C90.7056 89.21 91.0508 89.1719 91.4063 89.1719H107.656C110.51 89.1639 113.3 90.0256 115.653 91.6411C119.541 94.2897 121.869 98.6862 121.875 103.391V111.516C121.868 115.492 119.544 119.099 115.928 120.749C115.234 121.078 114.502 121.319 113.75 121.468V99.3281H109.688V121.672H91.4063V125.734H111.719C113.762 125.747 115.782 125.304 117.632 124.438C122.686 122.122 125.93 117.075 125.938 111.516V103.391C125.934 97.3453 122.943 91.6927 117.946 88.2895Z" fill="#00A651"/>
<path d="M56.875 121.672H73.125V125.734H56.875V121.672Z" fill="#00A651"/>
</svg>
