<svg width="30" height="30" viewBox="0 0 30 30" fill="none" xmlns="http://www.w3.org/2000/svg">
<path d="M11.7816 1.09887C11.6685 1.09713 11.5559 1.11589 11.4495 1.15425C6.52983 2.85273 3.97848 6.25821 3.38705 10.0402C2.79562 13.8222 4.03775 17.9124 6.27291 21.3206C8.50806 24.7289 11.7558 27.4962 15.4149 28.5111C19.074 29.526 23.1572 28.6369 26.5154 24.947C26.6539 24.7947 26.7385 24.601 26.756 24.3959C26.7735 24.1908 26.723 23.9856 26.6123 23.812L22.9721 18.0403C22.9062 17.9362 22.8205 17.8461 22.7198 17.7752C22.6191 17.7042 22.5054 17.6538 22.3853 17.6268C22.2651 17.5999 22.1408 17.5968 22.0194 17.6179C21.898 17.639 21.782 17.6837 21.678 17.7497L17.2904 20.511C13.3931 18.3956 11.9941 15.2446 11.5325 11.362L15.9063 8.60765C16.0103 8.54179 16.1004 8.45606 16.1714 8.35537C16.2423 8.25468 16.2927 8.14099 16.3197 8.02081C16.3467 7.90063 16.3498 7.7763 16.3287 7.65494C16.3076 7.53358 16.2628 7.41756 16.1969 7.31351L12.5498 1.53486C12.4675 1.40467 12.3543 1.29678 12.2203 1.22074C12.0863 1.14469 11.9356 1.10283 11.7816 1.09887Z" fill="#323232"/>
</svg>
