<svg width="130" height="130" viewBox="0 0 130 130" fill="none" xmlns="http://www.w3.org/2000/svg">
<g clip-path="url(#clip0_8_362)">
<path d="M102.641 78.0336C102.628 78.0285 102.616 78.0235 102.604 78.0189C101.312 77.5187 78.5071 68.6868 77.0385 68.118L77.0345 63.1439C81.3961 59.9513 84.4174 55.0361 85.0923 49.408C90.0574 48.9728 93.7343 45.0123 93.7343 40.4197C93.7343 38.605 93.1876 36.8134 92.2002 35.2902C92.2865 35.1625 92.3685 35.0312 92.4419 34.8928L98.8046 22.9028C99.3718 21.8338 99.4454 20.5155 99.0016 19.3762C98.5956 18.3345 97.7955 17.5364 96.8066 17.187C95.1765 16.6109 92.8009 15.8652 89.722 15.1362C85.0034 5.91098 75.4026 0 65 0C54.5974 0 44.9966 5.91098 40.278 15.1365C37.1991 15.8655 34.8235 16.6109 33.1934 17.1873C32.2044 17.5367 31.4044 18.3347 30.9984 19.3765C30.5545 20.5158 30.6282 21.8341 31.1954 22.9028L37.5581 34.8926C37.652 35.0698 37.7599 35.2364 37.875 35.3963C36.8393 36.9109 36.2659 38.6712 36.2659 40.4438C36.2659 44.9755 39.8849 48.9822 44.9067 49.41C45.5636 54.9374 48.4759 59.8815 52.9505 63.1216L52.9508 68.0385C50.0841 69.158 29.8936 77.0436 27.3916 78.0209C27.3809 78.025 27.3703 78.0293 27.3596 78.0336C22.0176 80.2322 16.2679 86.5322 16.2679 95.1691V123.54C16.2679 127.101 19.1655 130 22.7281 130H60.5566C61.6085 130 62.4609 129.147 62.4609 128.095C62.4609 127.044 61.6085 126.191 60.5566 126.191H34.9261C34.9261 125.372 34.9261 97.259 34.9261 96.4415C34.9261 95.3898 34.0737 94.5371 33.0218 94.5371C31.9698 94.5371 31.1175 95.3898 31.1175 96.4415V104.286H20.0763V95.1686C20.0763 87.8281 25.2834 83.0138 28.7932 81.5614L34.0849 79.4946C37.8247 81.5688 51.4613 89.1386 57.5628 92.6133C57.5567 92.6989 57.5518 92.7849 57.5485 92.8713C55.6424 93.749 53.9931 95.0825 52.7233 96.7847C50.7225 99.4673 49.8742 102.771 50.3342 106.086C50.5237 107.452 51.2351 108.657 52.3373 109.479C53.4411 110.302 54.7987 110.639 56.1599 110.432C59.4691 109.927 62.3936 108.173 64.3947 105.49C64.6102 105.201 64.8111 104.903 65.0002 104.598C65.1894 104.903 65.3902 105.201 65.6058 105.49C67.6069 108.173 70.5311 109.928 73.8408 110.432C75.2013 110.639 76.5597 110.302 77.6632 109.479C78.7654 108.657 79.4768 107.452 79.6662 106.086C80.1263 102.771 79.278 99.4675 77.2772 96.785C76.0077 95.0831 74.358 93.7495 72.4519 92.8718C72.4489 92.7854 72.4438 92.6996 72.4377 92.6138C74.1059 91.6639 76.4545 90.3408 79.4502 88.6637C80.368 88.1501 80.6953 86.9895 80.1817 86.0719C79.6683 85.1542 78.5071 84.8267 77.59 85.3403C74.9402 86.8237 72.7914 88.033 71.1697 88.9535C70.5065 87.9777 69.6148 87.1789 68.6344 86.632L77.5469 72.3986C78.8575 72.9062 89.9972 77.2204 91.2744 77.715C89.6271 78.6298 87.5676 79.7744 85.3548 81.0066C84.4359 81.5183 84.1058 82.6779 84.6174 83.5967C85.1291 84.5156 86.2882 84.8457 87.2076 84.3341C90.9763 82.2358 94.2982 80.3922 95.8973 79.5053L101.209 81.5624C105.543 83.3553 109.924 88.5998 109.924 95.1689V104.287H98.883V96.442C98.883 95.3903 98.0307 94.5377 96.9787 94.5377C95.9268 94.5377 95.0744 95.3903 95.0744 96.442V126.192H69.4434C68.3914 126.192 67.5391 127.044 67.5391 128.096C67.5391 129.148 68.3914 130 69.4434 130H107.272C110.834 130 113.732 127.103 113.732 123.54C113.732 120.666 113.732 97.9867 113.732 95.1696C113.732 87.7677 109.171 80.7215 102.641 78.0336ZM31.1175 126.191H22.7278C21.2656 126.191 20.0763 125.002 20.0763 123.54V115.882H31.1175V126.191ZM31.1175 108.096V112.074H20.0763V108.096H31.1175ZM85.2405 45.5539V36.6892C86.1541 36.8611 86.9128 37.014 87.593 37.1582C87.9685 37.2379 88.4692 37.2765 88.9232 37.2344C89.5681 38.171 89.9256 39.289 89.9256 40.4194C89.9259 43.0156 87.8647 45.1192 85.2405 45.5539ZM95.4484 20.7463C95.4819 20.825 95.5083 20.9893 95.4405 21.1173L89.0779 33.1071C88.9395 33.3679 88.6454 33.488 88.3832 33.4324C83.3956 32.3743 78.239 31.6644 73.466 31.3071C75.7286 29.0677 77.0266 25.9867 77.0266 22.7728C77.0266 20.6806 76.4746 18.5777 75.3808 16.7074C81.8681 17.2899 89.253 18.5706 95.4484 20.7463ZM65 3.80862C72.8831 3.80862 80.233 7.74268 84.6642 14.0934C80.6006 13.3733 76.1735 12.8597 71.4256 12.6081C69.4954 11.3842 67.2674 10.7462 65.0002 10.7462H64.9995C62.7201 10.7462 60.4936 11.3911 58.5748 12.6081C53.7866 12.862 49.3671 13.3789 45.3363 14.0934C49.7668 7.74268 57.1169 3.80862 65 3.80862ZM73.218 22.773C73.218 27.3038 69.5322 30.9908 65 30.991C60.8935 30.991 57.4807 27.9632 56.877 24.0228C56.1135 19.0426 59.9853 14.555 65.0002 14.555C69.5787 14.555 73.218 18.2956 73.218 22.773ZM44.7594 45.5585C42.1424 45.135 40.0743 43.04 40.0743 40.4438C40.0743 39.3263 40.4887 38.1997 41.2326 37.2478C41.5869 37.2681 42.0309 37.2382 42.4072 37.1585C43.072 37.0175 43.8286 36.8652 44.7597 36.6895V45.5585H44.7594ZM41.6173 33.4324C41.3484 33.4897 41.0562 33.3595 40.9224 33.1074L34.5597 21.1173C34.4916 20.9893 34.5183 20.8253 34.5521 20.7466C40.6766 18.5955 48.0463 17.2978 54.6195 16.7077C53.5756 18.4901 52.9736 20.5904 52.9736 22.7728C52.9736 25.9969 54.28 29.0763 56.5342 31.3071C51.7785 31.6626 46.6574 32.3639 41.6173 33.4324ZM38.6915 77.6962L52.4145 72.3367L61.3661 86.6322C60.3791 87.1835 59.4907 87.9825 58.8308 88.9537C53.5957 85.9825 43.9789 80.6324 38.6915 77.6962ZM61.3414 103.213C59.9432 105.088 57.8989 106.314 55.5861 106.667C55.238 106.72 54.8932 106.635 54.6141 106.426C54.3351 106.218 54.1548 105.912 54.1066 105.563C53.7849 103.246 54.378 100.937 55.776 99.0623C56.5012 98.0898 57.4043 97.2895 58.438 96.6946C59.3033 98.2955 60.7313 99.5272 62.4373 100.152C62.5498 100.193 62.6633 100.231 62.778 100.267C62.4896 101.326 62.0046 102.324 61.3414 103.213ZM71.5617 96.6946C72.5954 97.2893 73.4986 98.0898 74.2237 99.0623C75.6217 100.937 76.2149 103.246 75.8932 105.563C75.8449 105.912 75.6646 106.219 75.3856 106.427C75.1065 106.635 74.761 106.72 74.4139 106.667C72.1008 106.315 70.0566 105.088 68.6583 103.214C67.9953 102.325 67.5104 101.326 67.2214 100.267C69.0778 99.6882 70.6393 98.4009 71.5617 96.6946ZM68.6499 93.1467C68.6499 95.1445 67.0236 96.7967 65 96.7967C62.9984 96.7967 61.3503 95.164 61.3503 93.1467C61.3503 91.1393 62.9842 89.4968 65 89.4968C67.0267 89.4968 68.6499 91.1498 68.6499 93.1467ZM65 85.2593L55.8347 70.622C56.4359 69.9588 56.7591 69.1103 56.7591 68.1607V65.2851C61.8444 67.4736 67.9727 67.6262 73.2279 65.3341L73.2302 68.1774C73.2327 69.1093 73.574 69.9718 74.1577 70.6345L65 85.2593ZM65.2615 63.1863C55.3825 63.1863 48.5681 55.56 48.5681 47.0159V36.0428C59.5143 34.3891 70.6657 34.4127 81.4322 36.0428V47.0159C81.4319 55.9373 74.1544 63.1863 65.2615 63.1863ZM109.924 123.54C109.924 125.002 108.734 126.191 107.272 126.191H98.8825V115.882H109.924V123.54ZM109.924 112.074H98.8825V108.096H109.924V112.074Z" fill="#00A651"/>
</g>
<defs>
<clipPath id="clip0_8_362">
<rect width="130" height="130" fill="white"/>
</clipPath>
</defs>
</svg>
