<svg width="20" height="20" viewBox="0 0 20 20" fill="none" xmlns="http://www.w3.org/2000/svg">
<path d="M13.4492 2.46597L5.92427 4.96597C0.86594 6.65764 0.86594 9.416 5.92427 11.0993L8.15761 11.841L8.89924 14.0743C10.5826 19.1327 13.3492 19.1327 15.0326 14.0743L17.5409 6.55764C18.6576 3.18264 16.8242 1.34097 13.4492 2.46597ZM13.7159 6.9493L10.5492 10.1327C10.4242 10.2577 10.2659 10.316 10.1076 10.316C9.94924 10.316 9.79091 10.2577 9.66591 10.1327C9.42424 9.89099 9.42424 9.49099 9.66591 9.24933L12.8326 6.06597C13.0742 5.8243 13.4742 5.8243 13.7159 6.06597C13.9576 6.30764 13.9576 6.70764 13.7159 6.9493Z" fill="#767676"/>
</svg>
