<svg width="24" height="24" viewBox="0 0 24 24" fill="none" xmlns="http://www.w3.org/2000/svg">
<path d="M7.71066 12.2223C8.23542 11.6102 8.00366 9.5263 7.83746 8.43117C7.80565 8.23332 7.83117 8.0305 7.91102 7.84671C7.99086 7.66291 8.12168 7.50583 8.288 7.39406C9.34402 6.5901 10.6417 6.16855 11.9686 6.19847C13.2984 6.16772 14.5994 6.58815 15.6597 7.39127C15.8296 7.50387 15.9643 7.66209 16.0484 7.84778C16.1324 8.03347 16.1624 8.23909 16.135 8.44106C15.9842 9.54865 15.7824 11.6622 16.3253 12.2925C17.5598 13.7256 21.3736 13.8216 22.6653 12.4818C23.1423 11.9871 22.8438 10.6084 22.4371 9.37668C21.8321 7.59122 20.8032 5.97908 19.4385 4.67845C17.1571 3.30971 14.5891 2.48918 11.9367 2.28145C9.30448 2.44211 6.7473 3.2216 4.473 4.55654C3.00482 5.64587 1.70719 8.40477 1.3021 10.0926C1.0756 11.0363 1.00324 11.9254 1.3729 12.3084C2.68666 13.6694 6.49926 13.6354 7.71066 12.2223Z" fill="white"/>
<path d="M21.95 18.1785L20.8001 14.3485C20.4257 14.4011 20.0481 14.4278 19.67 14.4285C18.9215 14.4782 18.1708 14.3723 17.4652 14.1176C16.7596 13.8628 16.1144 13.4648 15.5701 12.9485C15.3702 12.7185 14.92 12.1885 14.98 10.2185H9.04C9.09005 12.1385 8.66012 12.6485 8.46993 12.8685C7.94397 13.3704 7.31953 13.7575 6.63616 14.0054C5.95278 14.2533 5.22537 14.3566 4.5 14.3087C4.0779 14.3118 3.65632 14.2783 3.24 14.2086L2.05006 18.1786C1.92764 18.5896 1.90292 19.0236 1.97788 19.4459C2.05283 19.8682 2.22538 20.2671 2.48177 20.6109C2.73817 20.9548 3.07133 21.234 3.4547 21.4262C3.83807 21.6185 4.26105 21.7186 4.68995 21.7186H19.3101C19.739 21.7186 20.1619 21.6185 20.5453 21.4262C20.9287 21.234 21.2618 20.9548 21.5182 20.6109C21.7746 20.2671 21.9472 19.8682 22.0221 19.4459C22.0971 19.0236 22.0724 18.5896 21.95 18.1785ZM14 16.7185H10C9.80109 16.7185 9.61032 16.6395 9.46967 16.4989C9.32902 16.3582 9.25 16.1674 9.25 15.9685C9.25 15.7696 9.32902 15.5789 9.46967 15.4382C9.61032 15.2976 9.80109 15.2185 10 15.2185H14C14.1989 15.2185 14.3897 15.2976 14.5303 15.4382C14.671 15.5789 14.75 15.7696 14.75 15.9685C14.75 16.1674 14.671 16.3582 14.5303 16.4989C14.3897 16.6395 14.1989 16.7185 14 16.7185Z" fill="white"/>
</svg>
